<svg xmlns="http://www.w3.org/2000/svg" xmlns:xlink="http://www.w3.org/1999/xlink" width="500" zoomAndPan="magnify" viewBox="0 0 375 374.999991" height="500" preserveAspectRatio="xMidYMid meet" version="1.0"><defs><g/></defs><g fill="#0097b2" fill-opacity="1"><g transform="translate(20.86089, 256.857025)"><g><path d="M 18.609375 0 L 35.046875 0 C 44.4375 0 51.8125 -7.375 51.8125 -16.765625 L 51.8125 -38.234375 C 51.8125 -47.625 44.4375 -55 35.046875 -55 L 27.171875 -55 C 25.15625 -55 23.640625 -56.515625 23.640625 -58.515625 L 23.640625 -96.078125 C 23.640625 -98.09375 25.15625 -99.609375 27.171875 -99.609375 C 29.171875 -99.609375 30.6875 -98.09375 30.6875 -96.078125 L 30.6875 -64.5625 L 51.8125 -64.5625 L 51.8125 -100.609375 C 51.8125 -110 44.4375 -117.375 35.046875 -117.375 L 24.3125 -117.375 L 24.3125 -117.21875 L 19.28125 -117.21875 C 9.890625 -117.21875 2.515625 -109.828125 2.515625 -100.4375 L 2.515625 -54 C 2.515625 -44.609375 9.890625 -37.234375 19.28125 -37.234375 L 27.171875 -37.234375 C 29.171875 -37.234375 30.6875 -35.71875 30.6875 -33.703125 L 30.6875 -21.125 C 30.6875 -19.109375 29.171875 -17.609375 27.171875 -17.609375 C 25.15625 -17.609375 23.640625 -19.109375 23.640625 -21.125 L 23.640625 -27.671875 L 2.515625 -27.671875 L 2.515625 -16.765625 C 2.515625 -7.546875 9.5625 0 18.609375 0 Z M 18.609375 0 "/></g></g></g><g fill="#0097b2" fill-opacity="1"><g transform="translate(74.83132, 256.191992)"><g><path d="M 10.71875 0 L 26.609375 0 L 26.609375 -74.90625 L 35.4375 -74.90625 L 35.4375 -88.28125 L 1.890625 -88.28125 L 1.890625 -74.90625 L 10.71875 -74.90625 Z M 10.71875 0 "/></g></g></g><g fill="#0097b2" fill-opacity="1"><g transform="translate(109.385365, 256.191992)"><g><path d="M 16.390625 0 L 28.25 0 C 35.3125 0 40.859375 -5.546875 40.859375 -12.609375 L 40.859375 -88.40625 L 24.96875 -88.40625 L 24.96875 -16.015625 C 24.96875 -14.5 23.828125 -13.375 22.328125 -13.375 C 20.8125 -13.375 19.671875 -14.5 19.671875 -16.015625 L 19.671875 -88.40625 L 3.78125 -88.40625 L 3.78125 -12.609375 C 3.78125 -5.546875 9.328125 0 16.390625 0 Z M 16.390625 0 "/></g></g></g><g fill="#0097b2" fill-opacity="1"><g transform="translate(151.253806, 256.191992)"><g><path d="M 3.78125 0 L 28.25 0 C 35.3125 0 40.859375 -5.546875 40.859375 -12.609375 L 40.859375 -75.671875 C 40.859375 -82.734375 35.3125 -88.28125 28.25 -88.28125 L 3.78125 -88.28125 Z M 19.671875 -13.375 L 19.671875 -75.03125 L 22.328125 -75.03125 C 23.828125 -75.03125 24.96875 -73.90625 24.96875 -72.390625 L 24.96875 -16.015625 C 24.96875 -14.5 23.828125 -13.375 22.328125 -13.375 Z M 19.671875 -13.375 "/></g></g></g><g fill="#0097b2" fill-opacity="1"><g transform="translate(193.122244, 256.191992)"><g><path d="M 12.734375 0 L 29.890625 0 L 29.890625 -32.03125 L 40.734375 -88.15625 L 25.21875 -88.15625 L 21.3125 -52.328125 L 17.28125 -88.15625 L 1.890625 -88.15625 L 12.734375 -32.03125 Z M 12.734375 0 "/></g></g></g><g fill="#ff6100" fill-opacity="1"><g transform="translate(232.31226, 256.857025)"><g><path d="M 5.03125 0 L 26.15625 0 L 26.15625 -27.671875 L 37.5625 -27.671875 C 46.953125 -27.671875 54.328125 -35.046875 54.328125 -44.4375 L 54.328125 -100.609375 C 54.328125 -110 46.953125 -117.375 37.5625 -117.375 L 5.03125 -117.375 Z M 26.15625 -45.4375 L 26.15625 -99.78125 L 29.6875 -99.78125 C 31.6875 -99.78125 33.203125 -98.265625 33.203125 -96.25 L 33.203125 -48.96875 C 33.203125 -46.953125 31.6875 -45.4375 29.6875 -45.4375 Z M 26.15625 -45.4375 "/></g></g></g><g fill="#ff6100" fill-opacity="1"><g transform="translate(285.262122, 255.503983)"><g><path d="M 1.890625 0 L 17.78125 0 L 18.796875 -13.109375 L 25.71875 -13.109375 L 26.734375 0 L 42.625 0 L 33.171875 -88.28125 L 11.21875 -88.28125 Z M 19.796875 -26.484375 L 22.1875 -59.78125 L 24.71875 -26.484375 Z M 19.796875 -26.484375 "/></g></g></g><g fill="#ff6100" fill-opacity="1"><g transform="translate(327.00495, 255.503983)"><g><path d="M 3.78125 0 L 30.515625 0 L 30.515625 -13.375 L 19.671875 -13.375 L 19.671875 -88.28125 L 3.78125 -88.28125 Z M 3.78125 0 "/></g></g></g></svg>